<?xml version="1.0" standalone="no"?>
<!DOCTYPE svg PUBLIC "-//W3C//DTD SVG 20010904//EN"
 "http://www.w3.org/TR/2001/REC-SVG-20010904/DTD/svg10.dtd">
<svg version="1.0" xmlns="http://www.w3.org/2000/svg"
 width="666.000000pt" height="375.000000pt" viewBox="0 0 666.000000 375.000000"
 preserveAspectRatio="xMidYMid meet">

<g transform="translate(0.000000,375.000000) scale(0.100000,-0.100000)"
fill="#000000" stroke="none">
<path d="M2393 3363 l-1053 -3 0 -893 c0 -490 -3 -990 -7 -1110 l-6 -218 158
3 157 3 -1 1034 -2 1034 915 -8 916 -7 2 71 c0 39 1 77 2 83 1 7 -6 13 -14 13
-8 0 -489 -1 -1067 -2z"/>
<path d="M1767 2778 c-4 -178 -7 -675 -7 -1105 l0 -783 178 -1 c97 0 567 -8
1045 -17 l867 -17 0 1116 0 1116 -547 6 c-302 4 -769 7 -1039 7 l-491 0 -6
-322z m1296 102 l577 0 0 -902 0 -903 -162 3 c-90 2 -460 9 -823 16 -363 6
-665 15 -672 19 -8 5 -10 227 -7 880 3 479 7 878 10 886 4 12 44 13 252 8 136
-4 507 -7 825 -7z"/>
<path d="M2399 2408 c-225 -114 -365 -267 -401 -441 -10 -48 -9 -58 11 -99 46
-96 177 -229 424 -432 131 -107 183 -136 356 -201 122 -45 191 -63 191 -50 0
5 -143 153 -318 329 -175 177 -328 338 -341 358 -21 35 -21 39 -6 67 27 54
164 210 207 237 l41 26 -6 59 c-9 77 -37 199 -46 199 -4 0 -55 -24 -112 -52z
m21 -94 c0 -4 -55 -63 -122 -133 -68 -70 -134 -148 -148 -174 l-25 -47 25 -47
c33 -64 296 -327 478 -477 78 -65 142 -122 142 -127 0 -13 -29 -11 -88 6 -104
31 -432 321 -578 510 -92 118 -85 183 30 318 50 59 174 159 208 169 31 8 78
10 78 2z"/>
<path d="M3155 1935 c17 -7 39 -23 50 -35 19 -21 20 -39 23 -355 l3 -333 -27
-31 c-14 -17 -34 -31 -44 -31 -10 0 -21 -3 -23 -7 -3 -5 66 -8 153 -8 87 0
156 3 153 8 -2 4 -12 7 -22 7 -27 0 -59 36 -71 81 -7 26 -10 143 -8 332 3 329
5 338 73 368 l40 18 -165 -1 c-145 0 -161 -1 -135 -13z"/>
</g>
</svg>
